<svg xmlns="http://www.w3.org/2000/svg" viewBox="0 0 1600 900">
  <defs>
    <linearGradient id="sky" x1="0" y1="0" x2="0" y2="1">
      <stop offset="0%" stop-color="#8ecae6"/>
      <stop offset="100%" stop-color="#219ebc"/>
    </linearGradient>
    <linearGradient id="mount" x1="0" y1="0" x2="0" y2="1">
      <stop offset="0%" stop-color="#264653"/>
      <stop offset="100%" stop-color="#1d3557"/>
    </linearGradient>
    <linearGradient id="forest" x1="0" y1="0" x2="0" y2="1">
      <stop offset="0%" stop-color="#2d6a4f"/>
      <stop offset="100%" stop-color="#1b4332"/>
    </linearGradient>
  </defs>
  <rect width="1600" height="900" fill="url(#sky)"/>
  <path d="M0 600 L200 450 L400 580 L600 420 L800 540 L1000 420 L1200 560 L1400 460 L1600 600 L1600 900 L0 900 Z" fill="url(#mount)" opacity="0.8"/>
  <path d="M0 720 C300 640 600 760 900 700 C1200 640 1400 760 1600 720 L1600 900 L0 900 Z" fill="url(#forest)"/>
  <!-- Cabin -->
  <g transform="translate(1050,620) scale(1.3)">
    <rect x="0" y="0" width="160" height="80" fill="#8d6e63" stroke="#5d4037" stroke-width="4"/>
    <path d="M-10 0 L80 -50 L170 0 Z" fill="#6d4c41" stroke="#4e342e" stroke-width="4"/>
    <rect x="15" y="35" width="35" height="35" fill="#a1887f" stroke="#5d4037" stroke-width="3"/>
    <rect x="70" y="25" width="80" height="45" fill="#90caf9" stroke="#5d4037" stroke-width="3"/>
    <line x1="-30" y1="80" x2="200" y2="80" stroke="#2e7d32" stroke-width="10"/>
  </g>
  <!-- Trees -->
  <g fill="#1b5e20">
    <path d="M200 760 l40 -100 l40 100 z"/>
    <rect x="235" y="760" width="10" height="40" fill="#3e2723"/>
    <path d="M320 780 l40 -100 l40 100 z"/>
    <rect x="355" y="780" width="10" height="40" fill="#3e2723"/>
    <path d="M1280 760 l40 -100 l40 100 z"/>
    <rect x="1315" y="760" width="10" height="40" fill="#3e2723"/>
  </g>
</svg>
